<svg width="364" height="268" viewBox="0 0 364 268" fill="none" xmlns="http://www.w3.org/2000/svg">
<g filter="url(#filter0_d_1022_371)">
<path d="M173.192 3.58475C173.21 8.6789 173.68 31.6567 173.77 31.729C173.825 31.7832 174.565 31.7651 175.432 31.7109L176.986 31.5845V30.0309C177.004 26.5084 176.607 3.80153 176.516 2.41057L176.408 0.929296H174.8H173.192V3.58475Z" fill="#FEFEFE"/>
<path d="M155.128 1.68785L151.966 2.22978L148.823 8.31746C147.107 11.6594 145.626 14.4593 145.536 14.5497C145.445 14.64 143.982 13.3755 142.085 11.551C140.261 9.8168 137.985 7.63102 137.009 6.70974L135.239 5.02975L131.644 5.62587C128.447 6.14974 128.031 6.25813 128.031 6.56522C128.031 6.9807 132.927 36.4075 133.017 36.4978C133.053 36.534 133.794 36.4436 134.661 36.3172L136.251 36.0462L136.196 35.5224C136.16 35.2153 135.167 29.1456 133.974 22.0283C132.8 14.8929 131.825 9.00391 131.825 8.91358C131.825 8.82326 132.367 8.66068 133.035 8.5523L134.245 8.35359L135.149 9.20261C135.654 9.65422 138.328 12.2013 141.092 14.8387C143.856 17.4761 146.168 19.6438 146.24 19.6619C146.312 19.698 148.028 16.4464 150.07 12.4723C152.563 7.59489 153.899 5.19233 154.134 5.08394C154.333 5.01169 154.911 4.88524 155.435 4.81298C156.338 4.70459 156.356 4.70459 156.465 5.21039C156.573 5.7162 160.908 31.7469 160.908 31.8734C160.908 31.9095 161.667 31.8192 162.588 31.6566C164.07 31.4037 164.25 31.3314 164.214 31.0063C164.178 30.8076 163.058 24.0334 161.721 15.9767C160.384 7.90198 159.283 1.2543 159.283 1.20011C159.283 1.03753 158.325 1.14592 155.128 1.68785Z" fill="#FEFEFE"/>
<path d="M167.954 1.68899C167.954 2.01415 168.081 8.49925 168.225 16.1043C168.37 23.7094 168.496 30.3571 168.496 30.8629V31.8203H170.212C171.459 31.8203 171.928 31.7661 171.928 31.5855C171.928 31.4771 171.802 25.1546 171.657 17.5495C171.513 9.9444 171.386 3.13414 171.386 2.41157V1.11093H169.67H167.954V1.68899Z" fill="#FEFEFE"/>
<path d="M198.229 2.05136C197.904 3.06296 192.701 31.8937 192.827 32.002C193.044 32.2007 205.725 34.513 207.333 34.6394C209.916 34.8562 213.041 34.1878 215.48 32.8691C216.925 32.1104 219.201 29.9608 220.267 28.3711C223.374 23.6924 224.025 16.7377 221.803 12.059C220.231 8.7713 217.106 6.17003 213.06 4.79714C212.337 4.54424 208.923 3.82167 205.436 3.18941C201.968 2.5391 198.933 1.96104 198.698 1.92491C198.464 1.87072 198.265 1.92491 198.229 2.05136ZM205.527 6.35067C210.151 7.21776 211.65 7.61518 213.367 8.41001C217.72 10.4332 220.032 14.317 219.725 19.086C219.563 21.3621 219.021 23.5118 218.081 25.4086C216.709 28.2266 214.812 29.9246 211.976 30.864C210.657 31.2795 210.223 31.3337 208.056 31.3517C205.996 31.3517 205.075 31.2433 202.094 30.6833C196.404 29.5995 196.675 29.6717 196.675 29.2924C196.675 29.0214 200.252 9.49387 200.848 6.56745C200.993 5.881 201.119 5.6281 201.336 5.6281C201.498 5.6281 203.395 5.95326 205.527 6.35067Z" fill="#FEFEFE"/>
<path d="M202.456 7.74169C202.456 7.83201 201.607 12.4384 200.56 18.0022C199.53 23.548 198.717 28.1363 198.753 28.1725C198.952 28.3712 205.455 29.4912 206.972 29.5815C212.067 29.9066 215.77 27.3776 217.233 22.6086C217.775 20.8203 218.028 18.3635 217.811 16.8642C217.341 13.5403 215.824 11.5171 212.663 10.0539C211.127 9.33135 210.025 9.02426 206.214 8.33781C204.588 8.03072 203.089 7.74169 202.872 7.70556C202.637 7.65137 202.456 7.66943 202.456 7.74169ZM207.532 11.7881C210.892 12.4565 212.283 13.1249 213.421 14.6242C213.747 15.0577 214.108 15.7442 214.216 16.1597C214.722 17.948 214.234 21.4706 213.241 23.4577C212.337 25.2099 210.694 26.3118 208.652 26.5105C207.569 26.6189 203.07 25.9867 202.745 25.6796C202.655 25.5893 203.143 22.5544 203.883 18.5803C204.588 14.7687 205.166 11.5894 205.166 11.5352C205.166 11.3365 205.527 11.3907 207.532 11.7881Z" fill="#FEFEFE"/>
<path d="M150.828 15.0217C148.715 19.1945 146.926 22.6268 146.854 22.681C146.782 22.7171 144.415 20.5132 141.579 17.8036C135.763 12.2036 134.209 10.7766 134.065 10.903C133.992 10.9753 137.75 34.0615 138.057 35.3621C138.129 35.7234 138.165 35.7234 139.773 35.4705C140.658 35.326 141.399 35.1273 141.399 35.037C141.399 34.9466 140.821 31.4602 140.134 27.2693C139.43 23.0784 138.888 19.61 138.906 19.5378C138.942 19.4474 140.802 21.1455 143.061 23.259C146.529 26.5467 147.215 27.1248 147.577 27.0345C147.902 26.9441 148.498 25.9325 150.503 21.9403C152.454 18.0745 153.05 17.0268 153.159 17.2978C153.249 17.4784 153.845 20.9648 154.513 25.0474C155.182 29.1119 155.778 32.526 155.85 32.5983C156.049 32.815 158.939 32.3273 159.047 32.0744C159.192 31.677 155.091 7.43465 154.875 7.43465C154.766 7.43465 152.942 10.8488 150.828 15.0217Z" fill="#FEFEFE"/>
<path d="M230.004 24.3416C223.952 30.9532 218.967 36.4267 218.93 36.4989C218.894 36.5892 219.22 36.788 219.653 36.9325C220.087 37.077 220.845 37.366 221.369 37.5647L222.29 37.9441L232.172 27.0332C237.609 21.0178 242.143 16.1043 242.252 16.1043C242.378 16.1043 243.335 16.4294 244.383 16.8449L246.316 17.5856L246.424 24.8294C246.497 28.8216 246.605 35.5415 246.677 39.7505L246.804 47.4098L248.484 48.042C249.405 48.3853 250.182 48.6382 250.218 48.602C250.29 48.5117 249.64 15.5443 249.568 15.472C249.423 15.3456 241.403 12.3108 241.222 12.3288C241.113 12.3288 236.074 17.7301 230.004 24.3416Z" fill="#FEFEFE"/>
<path d="M109.587 12.6903C105.92 12.9974 101.874 15.111 99.5794 17.9109C97.5923 20.3316 96.6169 23.0954 96.4723 26.6902C96.3278 30.285 97.0865 33.3379 98.893 36.445C99.9046 38.1972 102.705 41.0514 104.276 41.9726C108.575 44.4655 113.037 44.7365 117.553 42.7855C125.52 39.3353 128.645 30.1405 124.689 21.7586C123.749 19.7716 123.099 18.7961 121.69 17.2968C118.529 13.9007 114.302 12.311 109.587 12.6903ZM113.471 16.1045C116.939 16.9897 119.793 19.4464 121.6 23.0954C122.611 25.1367 123.009 26.8528 123.027 29.2915C123.045 31.6218 122.684 33.1934 121.654 35.1624C120.39 37.5469 117.373 39.8411 114.482 40.5817C112.893 40.9972 109.966 40.8707 108.377 40.3107C106.046 39.4978 103.572 37.4566 102.108 35.1624C99.5072 31.0979 99.0375 25.5702 100.988 21.7406C103.283 17.2064 108.539 14.84 113.471 16.1045Z" fill="#FEFEFE"/>
<path d="M109.425 17.4781C102.344 18.8329 99.4356 26.1851 103.157 33.3566C105.469 37.8185 110.581 40.1488 114.881 38.7037C119.108 37.2947 121.546 33.6276 121.293 29.1115C121.022 24.1077 117.861 19.5013 113.652 17.9658C112.55 17.5684 110.31 17.3155 109.425 17.4781ZM113.11 21.1451C114.429 21.7955 115.946 23.4212 116.723 24.9748C117.644 26.8896 117.97 28.3347 117.879 30.1954C117.753 32.7966 116.615 34.5308 114.357 35.5605C113.49 35.9579 113.183 36.0121 111.882 35.9398C110.166 35.8495 109.281 35.4521 107.944 34.2057C105.361 31.785 104.114 27.1425 105.252 24.198C105.848 22.6445 107.294 21.3619 109.064 20.7838C109.967 20.4948 112.171 20.6935 113.11 21.1451Z" fill="#FEFEFE"/>
<path d="M236.851 24.1082C233.491 27.9378 231.666 30.1598 231.811 30.232C232.064 30.3946 244.673 35.2539 244.799 35.2539C244.853 35.2539 244.907 31.6049 244.907 27.143V19.0321L243.733 18.5625C243.083 18.3096 242.451 18.0928 242.324 18.1108C242.216 18.1108 239.741 20.8205 236.851 24.1082ZM241.927 26.7998C241.854 28.9133 241.782 30.6656 241.746 30.7017C241.674 30.792 237.122 28.9856 237.122 28.8591C237.104 28.7146 241.836 22.9702 241.963 22.9702C242.017 22.9702 241.999 24.7043 241.927 26.7998Z" fill="#FEFEFE"/>
<path d="M83.0516 23.9815C82.311 24.4512 81.6788 24.8305 81.6607 24.8486C81.6246 24.8847 84.8761 30.0511 88.8864 36.3556C92.8786 42.66 96.2205 47.8987 96.2928 48.0071C96.3651 48.1335 96.0218 48.4768 95.4257 48.8742L94.4322 49.5245L80.4865 45.189C72.8272 42.8045 66.5408 40.8717 66.5228 40.8897C66.4867 40.9259 69.4853 45.6587 73.1524 51.4212C76.8195 57.1838 79.8723 61.9889 79.9446 62.1153C80.0349 62.2598 80.5046 62.0611 81.48 61.4289L82.8891 60.5076L82.5458 59.9476C82.3652 59.6225 80.3962 56.5334 78.1923 53.0651C75.9885 49.5967 74.2182 46.7426 74.2543 46.6884C74.3085 46.6523 78.8065 48.0432 84.2439 49.7954C89.6993 51.5477 94.2877 52.9928 94.4322 53.0109C94.6309 53.0109 100.448 49.4884 100.899 49.0729C100.99 49.0006 84.6232 23.1686 84.4968 23.1505C84.4426 23.1505 83.7923 23.5299 83.0516 23.9815Z" fill="#FEFEFE"/>
<path d="M259.106 36.6436C254.771 43.8512 251.284 49.8125 251.357 49.9028C251.591 50.1196 268.066 60.0188 268.102 59.9646C268.156 59.8924 269.511 57.5982 269.602 57.4356C269.638 57.3634 266.531 55.4305 262.701 53.1363C258.871 50.8421 255.764 48.9092 255.8 48.837C256.144 48.2228 268.12 28.2617 268.229 28.1352C268.319 28.0449 271.3 29.7249 275.256 32.0913C279.031 34.3494 282.156 36.1739 282.192 36.1378C282.355 35.939 283.728 33.5546 283.692 33.5184C283.638 33.4642 267.651 23.8721 267.307 23.6914C267.036 23.5469 265.898 25.3714 259.106 36.6436Z" fill="#FEFEFE"/>
<path d="M78.7696 26.6899C78.0471 27.1596 77.4509 27.5931 77.4509 27.6835C77.4509 27.7738 79.3658 30.8808 81.6961 34.566C84.0444 38.2511 85.9231 41.2859 85.887 41.3401C85.8328 41.3762 81.2806 39.9853 75.7529 38.233C70.2252 36.4808 65.6007 35.1079 65.4924 35.1802C65.3659 35.2524 63.9027 36.1556 62.2408 37.2034C59.3685 39.0098 59.2421 39.1182 59.4769 39.4795C59.6034 39.6782 63.2885 45.4768 67.642 52.3413C71.9955 59.1877 75.6084 64.8418 75.6806 64.896C75.8432 64.9683 78.5167 63.4147 78.5348 63.2341C78.5348 63.1799 75.2471 57.9412 71.2187 51.6006C67.1904 45.2781 63.9027 40.0214 63.9027 39.9491C63.9027 39.8046 65.6549 38.6846 65.8717 38.6846C65.944 38.6846 72.2484 40.6356 79.8896 43.0201C87.5308 45.4046 93.7811 47.3375 93.7992 47.3013C93.8533 47.2291 80.2509 25.859 80.1606 25.859C80.1064 25.877 79.4741 26.2383 78.7696 26.6899Z" fill="#FEFEFE"/>
<path d="M266.531 34.4226L264.11 38.451L269.801 41.8651C272.926 43.7438 275.545 45.2974 275.599 45.3335C275.69 45.3696 276.972 43.3645 277.207 42.8226C277.243 42.7503 275.346 41.54 273.016 40.131C270.668 38.74 268.753 37.5116 268.753 37.4213C268.753 37.2407 270.017 35.091 270.198 34.9826C270.252 34.9465 272.402 36.1568 274.949 37.6923L279.573 40.4742L280.386 39.1194L281.199 37.7826L280.802 37.5297C280.585 37.3852 277.821 35.7233 274.678 33.8265L268.934 30.3943L266.531 34.4226Z" fill="#FEFEFE"/>
<path d="M227.132 35.0718C225.47 36.9685 224.134 38.5582 224.17 38.5943C224.206 38.6305 225.001 38.9556 225.94 39.3169C227.602 39.9672 227.638 39.9672 227.909 39.624C228.072 39.4253 228.957 38.4137 229.878 37.366L231.576 35.4511L232.461 35.8124C232.967 35.9931 235.189 36.8602 237.429 37.7092L241.475 39.2808V42.2975V45.3323L242.884 45.8743C243.643 46.1814 244.42 46.4704 244.6 46.5426C244.889 46.6691 244.908 46.3801 244.908 41.9724C244.908 38.3776 244.853 37.2576 244.691 37.1853C243.047 36.535 230.655 31.766 230.456 31.7118C230.293 31.6576 229.065 32.9041 227.132 35.0718Z" fill="#FEFEFE"/>
<path d="M283.024 47.8444C278.706 52.9747 274.262 58.2314 273.16 59.5321L271.155 61.9166L272.456 63.0185L273.757 64.1385L282.68 53.5889C290.412 44.4303 291.622 43.0574 291.875 43.2742C292.02 43.4006 293.952 45.0264 296.156 46.887C300.492 50.5541 301.395 51.5657 301.81 53.336C302.623 56.7321 300.058 60.6159 296.391 61.5553C295.398 61.8082 295.036 61.8262 294.061 61.6456C293.429 61.5191 292.598 61.2662 292.236 61.0856C291.46 60.6882 291.243 60.7785 291.604 61.3385C292.146 62.1514 292.471 63.994 292.345 65.4933C292.254 66.5952 290.249 75.1758 289.617 77.1809C289.545 77.3796 290.014 77.8674 291.08 78.7525C291.929 79.4751 292.959 80.4506 293.374 80.9564C293.772 81.4441 294.151 81.8596 294.223 81.8596C294.278 81.8596 300.6 79.8364 308.241 77.3435C315.883 74.8687 322.187 72.8274 322.241 72.8274C322.313 72.8274 322.982 73.6042 323.741 74.5435L325.131 76.2596L317.888 89.284L310.644 102.29L311.782 103.717C312.414 104.512 312.956 105.145 313.01 105.145C313.119 105.145 328.564 77.0003 328.799 76.3861C328.943 75.9887 328.672 75.5732 326.197 72.5384C324.68 70.6597 323.415 69.1062 323.397 69.07C323.379 69.052 316.515 71.1836 308.133 73.821C299.769 76.4764 292.869 78.5899 292.814 78.5358C292.76 78.4635 293.212 76.368 293.826 73.8571C294.44 71.3642 295.072 68.6546 295.235 67.8597C295.506 66.523 295.506 65.0417 295.235 64.3372C295.127 64.0843 295.289 64.0662 296.265 64.1204C298.649 64.2649 300.853 63.3075 302.75 61.2843C305.297 58.5747 306.128 54.9076 304.918 51.7644C304.141 49.7051 303.292 48.8199 297.041 43.5271C293.772 40.7632 291.044 38.5052 290.99 38.5232C290.936 38.5232 287.341 42.7142 283.024 47.8444Z" fill="#FEFEFE"/>
<path d="M260.641 44.2113C259.268 46.5235 258.292 48.3299 258.383 48.4203C258.672 48.6912 270.396 55.6641 270.558 55.6641C270.703 55.6641 272.256 53.1351 272.148 53.0628C272.13 53.0267 269.998 51.7622 267.451 50.2267C264.886 48.6912 262.79 47.3906 262.79 47.3183C262.79 47.2461 263.152 46.5777 263.603 45.8371L264.434 44.4822L268.752 47.0835L273.087 49.6848L273.503 49.0164C273.737 48.6551 274.099 48.0409 274.334 47.6796L274.731 47.0112L274.315 46.7403C272.961 45.8732 263.278 40.1287 263.188 40.1287C263.116 40.1287 261.978 41.9713 260.641 44.2113Z" fill="#FEFEFE"/>
<path d="M288.389 49.6125C286.51 51.8344 284.993 53.7131 285.029 53.8035C285.173 54.2009 290.864 58.8073 291.966 59.4034C293.104 60.0176 293.357 60.0898 294.585 60.0898C296.211 60.0898 297.006 59.7466 298.234 58.5363C299.878 56.9105 300.402 54.9054 299.661 53.2254C299.047 51.8525 298.595 51.3467 295.452 48.6912C293.826 47.3364 292.345 46.0719 292.146 45.8913C291.785 45.5842 291.713 45.6564 288.389 49.6125ZM293.935 51.4912C295.958 53.2254 296.391 53.7131 296.5 54.4176C296.626 55.1763 296.048 56.0976 295.163 56.6215C294.639 56.9286 294.459 56.9466 293.862 56.766C293.176 56.5673 291.839 55.628 290.268 54.2551L289.473 53.5506L290.882 51.9067C291.659 50.9854 292.327 50.2448 292.381 50.2448C292.417 50.2448 293.122 50.8048 293.935 51.4912Z" fill="#FEFEFE"/>
<path d="M48.1867 50.6253C43.9777 51.7092 40.2926 54.744 38.432 58.6278C37.4384 60.7414 37.1133 62.2226 37.1133 64.6975C37.1313 67.2987 37.5468 68.9787 38.7933 71.5077C41.8461 77.7038 47.8074 81.3889 54.2202 81.0818C57.6886 80.9192 60.5247 79.727 63.0356 77.3786C66.3775 74.2174 67.8768 70.8935 67.8768 66.6123C67.8768 64.1555 67.4433 62.2046 66.4317 60.0549C64.1736 55.2317 59.6576 51.5466 54.726 50.4989C52.9557 50.1376 49.8486 50.1918 48.1867 50.6253ZM55.1957 54.0756C59.1879 55.5027 62.6562 58.953 64.0111 62.891C64.8962 65.402 64.8962 68.3464 64.0472 70.6045C63.5233 71.9954 62.0601 74.109 60.8679 75.1748C59.6395 76.2767 57.3815 77.4147 55.8099 77.7218C53.5518 78.1554 50.4448 77.6857 48.277 76.5838C44.6822 74.7593 41.5932 70.8574 40.69 67.0097C40.3468 65.5284 40.3468 63.0717 40.69 61.7168C41.6113 58.122 44.7545 54.9246 48.4577 53.8227C50.1196 53.335 53.4254 53.4614 55.1957 54.0756Z" fill="#FEFEFE"/>
<path d="M48.3311 55.6468C46.4524 56.261 44.4292 57.9048 43.3453 59.6571C41.6834 62.3848 41.7015 65.7267 43.3995 69.1409C46.8498 76.1498 55.3942 78.2995 60.2716 73.386C62.3129 71.3447 63.1077 69.1951 62.9632 66.2325C62.8187 63.6132 61.7168 61.319 59.4768 59.0248C58.0678 57.5797 56.6226 56.6223 54.762 55.9178C53.064 55.2494 49.9027 55.1229 48.3311 55.6468ZM54.0575 59.1694C55.9904 60.0726 57.9594 62.0416 58.9529 64.0467C59.6213 65.4015 59.6574 65.5822 59.6574 67.1177C59.6574 68.5447 59.6032 68.8699 59.1697 69.6647C57.3633 73.0789 53.5698 73.8918 50.0291 71.6157C46.5247 69.3757 44.5376 65.257 45.5673 62.3306C46.8137 58.8081 50.4627 57.4532 54.0575 59.1694Z" fill="#FEFEFE"/>
<path d="M279.663 59.9469C277.495 62.512 275.617 64.752 275.454 64.9326C275.183 65.2578 275.237 65.33 276.159 66.161C276.701 66.6487 277.297 67.1365 277.459 67.2268C277.712 67.3894 278.29 66.7932 280.964 63.6139C282.734 61.5365 284.215 59.8204 284.269 59.8204C284.324 59.8204 284.884 60.272 285.516 60.832C287.774 62.8371 287.846 63.7584 286.329 69.2319C285.769 71.2551 285.299 73.1158 285.299 73.3687C285.281 73.7299 285.588 74.0912 286.582 74.9583C287.286 75.5725 287.918 76.0241 287.955 75.9338C288.063 75.7712 289.761 69.3945 290.249 67.4074C290.989 64.3004 290.646 61.952 289.219 60.1456C288.569 59.3327 283.98 55.3043 283.709 55.3043C283.637 55.3043 281.813 57.3998 279.663 59.9469Z" fill="#FEFEFE"/>
<path d="M217.63 59.9288C213.114 60.3262 208.236 61.2114 204.389 62.3494C188.98 66.8475 176.407 75.5906 169.94 86.2666C168.025 89.464 166.128 94.0704 165.424 97.2497C165.298 97.8278 165.135 98.2975 165.081 98.2794C165.027 98.2794 164.521 97.7194 163.979 97.0149C162.714 95.4252 158.578 91.3066 156.572 89.6266C149.672 83.9183 141.416 79.6551 132.637 77.2525C122.377 74.4706 110.31 74.2719 98.2427 76.7287C81.9487 80.0344 69.1591 87.7118 61.5902 98.713C59.3683 101.946 56.478 107.348 55.0509 110.943C54.1296 113.255 53.2083 116.561 52.6122 119.704C51.998 122.955 51.0406 129.169 51.1129 129.531C51.1671 129.766 52.3954 129.928 59.4767 130.56C65.2753 131.102 67.8224 131.265 67.9127 131.12C67.9669 131.03 68.0753 130.56 68.1475 130.109C68.3101 128.898 69.394 124.635 70.0624 122.576C71.363 118.475 73.9281 112.857 75.9333 109.678C78.3358 105.884 82.0932 101.549 85.2545 98.8936C91.1073 94.0162 98.5317 90.873 107.076 89.6808C110.219 89.2472 117.879 89.2472 121.528 89.6808C139.267 91.8124 151.009 100.574 156.103 115.441C158.415 122.16 158.957 128.7 157.729 134.787C155.958 143.458 150.557 153.123 141.633 163.564C134.859 171.476 126.911 179.244 110.508 194.038C92.5886 210.17 86.5009 216.095 80.8648 222.851C75.8249 228.885 72.4649 234.756 71.5798 238.983L71.4533 239.561H125.303H179.153V241.457V243.354H123.208H67.2805L67.4069 241.494C67.9308 233.13 73.8378 223.863 87.0248 210.658C91.4505 206.25 96.4543 201.589 107.347 191.78C118.8 181.466 121.257 179.153 128.049 172.379C136.087 164.323 140.405 159.391 144.704 153.376C150.34 145.445 153.592 138.129 154.405 131.536C155.073 125.954 153.682 118.439 150.864 112.568C145.644 101.694 135.491 95.1543 121.257 93.5104C104.8 91.6137 91.6312 96.0936 82.8519 106.589C79.0042 111.159 75.6623 117.5 73.5849 124.129C72.9888 126.026 71.6159 131.554 71.7243 131.644C71.8327 131.753 88.6686 133.198 88.7589 133.126C88.8131 133.053 89.0841 131.843 89.3731 130.398C91.017 122.052 93.6002 116.29 97.5021 112.388C100.591 109.263 104.132 107.312 108.467 106.336C110.4 105.884 115.458 105.794 117.644 106.137C124.671 107.294 130.759 111.846 134.118 118.457C138.454 126.984 137.497 137.027 131.373 147.071C127.597 153.285 119.288 161.812 106.534 172.542C94.2866 182.857 89.7164 186.993 81.9487 194.743C73.9823 202.727 69.0869 208.327 64.7695 214.379C57.7967 224.206 52.5761 235.605 49.5594 247.653C48.9813 249.93 48.0239 254.662 47.7529 256.487L47.6445 257.264H134.913H222.2L219.599 255.259C218.172 254.157 214.18 251.086 210.729 248.448C207.279 245.793 204.479 243.625 204.497 243.607C204.515 243.589 205.473 243.679 206.611 243.806C211.651 244.384 214.649 244.528 222.327 244.528C230.763 244.528 233.129 244.366 239.307 243.426C247.382 242.18 253.506 240.41 259.088 237.664C266.512 234.033 270.974 230.059 275.616 222.996C280.096 216.203 283.023 208.49 284.323 200.09C284.793 197.055 284.974 189.974 284.667 186.686C283.98 179.316 281.704 172.235 278.109 166.237C276.502 163.582 274.551 161.125 271.931 158.542C268.138 154.749 264.958 152.49 258.798 149.203C257.118 148.3 255.709 147.505 255.655 147.432C255.601 147.36 256.974 146.24 258.69 144.958C264.416 140.658 268.047 137.316 270.865 133.776C276.791 126.315 279.952 116.271 279.518 106.336C278.94 93.0949 273.81 82.9247 263.333 74.2358C253.542 66.1249 243.353 61.8075 230.275 60.272C227.963 60.0011 219.472 59.7662 217.63 59.9288ZM226.933 72.1042C235.405 73.0435 243.661 76.5119 249.875 81.7144C251.771 83.3041 254.951 86.5376 256.125 88.0911C259.304 92.2459 261.689 97.0872 262.881 101.694C263.64 104.692 263.911 106.589 264.001 109.859C264.272 118.656 261.689 126.478 256.053 133.975C254.951 135.438 250.507 140.008 249.821 140.369C249.477 140.55 249.333 140.424 248.357 139.231C247.743 138.491 247.255 137.84 247.255 137.768C247.255 137.696 248.213 136.72 249.387 135.6C252.639 132.475 254.68 129.766 256.631 125.936C264.507 110.563 259.214 92.0472 244.148 82.1841C238.892 78.7338 232.894 76.6203 226.301 75.8796C223.808 75.6087 217.738 75.7712 215.462 76.1687C206.918 77.7041 199.782 81.2989 194.128 86.9169C187.047 93.9801 183.542 102.651 183.904 112.297C184.084 117.157 185.078 121.04 187.264 125.484C189.251 129.495 191.274 132.276 194.471 135.366C200.487 141.182 208.254 144.831 216.998 145.987C217.792 146.096 220.394 146.258 222.778 146.349C228.396 146.565 231.72 147.107 236.11 148.516C246.515 151.84 255.565 159.102 261.183 168.568C264.2 173.698 266.151 179.442 266.964 185.639C267.325 188.384 267.235 193.912 266.783 196.857C266.115 201.373 264.832 205.419 262.791 209.538C258.401 218.407 250.977 225.669 241.926 230.005C226.084 237.555 207.442 235.731 193.478 225.254C191.364 223.682 187.336 219.816 185.71 217.793C179.388 209.989 176.064 200.74 176.028 190.968C176.028 189.125 176.118 186.813 176.244 185.819C177.401 176.606 181.375 168.098 187.661 161.468L189.323 159.698L190.642 160.999L191.96 162.299L190.84 163.546C186.342 168.532 183.597 173.048 181.79 178.503C180.399 182.694 179.857 186.126 179.857 190.697C179.857 194.02 180.074 196.17 180.706 199.06C183.29 210.766 191.419 220.936 202.528 226.356C208.814 229.445 214.631 230.763 221.694 230.763C227.89 230.745 233.526 229.589 238.964 227.205C252.259 221.352 261.382 209.321 263.17 195.303C263.441 193.153 263.441 188.113 263.17 186.09C261.869 176.426 257.805 168.333 250.94 161.703C243.372 154.423 232.894 150.142 222.525 150.142C206.466 150.124 192.141 142.085 184.717 128.917C181.682 123.533 180.074 117.373 180.056 111.087C180.056 105.144 181.212 100.176 183.85 94.7749C188.998 84.2615 198.969 76.3132 210.856 73.2784C212.933 72.7545 215.715 72.2487 217.63 72.05C219.075 71.9055 225.434 71.9416 226.933 72.1042ZM226.662 86.664C231.846 87.5492 236.272 89.8253 239.939 93.5104C243.552 97.1233 245.666 101.26 246.569 106.517C246.876 108.377 246.912 109.19 246.84 112.207C246.713 116.94 246.172 119.288 244.365 122.955C241.294 129.187 235.369 133.667 228.107 135.257C225.885 135.745 219.039 135.745 216.456 135.257C211.054 134.246 206.683 132.006 203.088 128.393C200.306 125.575 198.644 122.865 197.488 119.162C196.657 116.524 196.314 114.14 196.314 110.816C196.314 105.903 197.398 101.567 199.511 98.0265C202.311 93.3659 206.845 89.6266 211.849 87.8563C213.818 87.1698 216.401 86.5737 218.352 86.375C220.43 86.1582 224.567 86.3028 226.662 86.664ZM179.586 140.261C180.851 141.182 183.868 143.151 186.306 144.633C188.745 146.096 190.678 147.36 190.588 147.432C190.515 147.523 188.655 148.372 186.469 149.329C180.616 151.894 178.304 153.177 174.637 155.905C166.399 162.028 161.667 170.537 159.788 182.568C159.318 185.62 159.138 193.786 159.463 197.326C159.987 203.215 161.305 208.887 163.347 214.09C164.178 216.167 166.255 220.376 167.23 221.93C167.628 222.562 167.953 223.122 167.953 223.194C167.953 223.249 152.707 223.303 134.082 223.303C115.458 223.303 100.212 223.249 100.212 223.194C100.212 222.941 109.551 212.862 112.947 209.465C118.059 204.353 120.01 202.691 135.961 190.082C146.547 181.701 155.344 173.174 161.179 165.587C167.194 157.783 171.349 148.86 173.192 139.845C173.481 138.4 173.77 136.793 173.842 136.269L173.968 135.329L175.63 136.937C176.552 137.822 178.322 139.322 179.586 140.261ZM227.023 158.723C230.69 159.554 234.357 161.161 237.32 163.275C239.434 164.792 242.866 168.152 244.329 170.157C247.183 174.041 248.953 178.268 249.893 183.471C250.344 186.054 250.435 191.293 250.055 194.219C249.116 201.626 246.352 207.37 241.294 212.464C236.489 217.305 231.485 219.925 225.416 220.792C223.32 221.081 218.949 220.9 216.691 220.412C206.99 218.353 198.373 210.513 195.14 200.831C193.857 196.983 193.333 192.991 193.478 188.258C193.803 178.341 197.271 170.501 203.811 164.937C208.128 161.252 212.608 159.192 218.081 158.379C219.418 158.181 225.705 158.434 227.023 158.723Z" fill="#FEFEFE"/>
<path d="M220.159 88.8324C218.551 88.9769 216.997 89.3021 215.299 89.844C205.707 92.8969 199.421 101.983 199.981 111.919C200.324 117.609 202.42 122.324 206.412 126.316C210.53 130.435 215.191 132.476 221.08 132.747C233.165 133.289 243.245 124.058 243.949 111.846C244.419 103.356 239.578 95.0466 231.901 91.1627C230.13 90.2776 227.403 89.3563 225.723 89.1034C224.35 88.8866 221.279 88.7421 220.159 88.8324ZM225.759 89.6273C226.21 89.7357 226.752 89.844 226.987 89.8982C227.204 89.9524 227.384 90.0789 227.384 90.2053C227.384 90.3318 227.005 90.3679 226.192 90.2956C225.217 90.2234 224.874 90.2776 224.44 90.5305L223.898 90.8556L224.585 91.0543C224.964 91.1627 225.343 91.1989 225.415 91.1447C225.668 91.0002 226.21 92.0118 226.156 92.5176C226.102 93.0234 226.337 93.3305 226.933 93.475C227.222 93.5292 227.168 93.5834 226.716 93.6917C226.102 93.8363 226.012 93.9627 226.283 94.2337C226.391 94.3421 226.409 94.7575 226.355 95.173C226.264 95.8414 226.192 95.9498 225.686 96.0582C225.379 96.1124 225.036 96.2569 224.91 96.3472C224.783 96.4556 224.657 96.4375 224.585 96.3291C224.512 96.2027 224.314 96.2388 224.025 96.4195C223.754 96.6001 223.591 96.6362 223.591 96.5098C223.591 96.4014 223.483 96.3111 223.338 96.3111C223.175 96.3111 223.121 96.4375 223.175 96.6543C223.284 97.1059 222.977 97.2865 222.67 96.9253C222.471 96.6724 222.507 96.582 222.868 96.293C223.121 96.1124 223.41 95.9498 223.519 95.9498C223.645 95.9498 224.133 95.8233 224.639 95.6608C225.614 95.3356 226.048 94.7756 225.831 94.1072C225.777 93.8904 225.813 93.6737 225.939 93.6014C226.102 93.493 226.102 93.2763 225.903 92.6079C225.632 91.6505 225.217 91.3072 225.217 92.0298C225.217 92.6621 224.115 93.6014 223.356 93.6014C222.579 93.6014 221.532 94.613 222.019 94.9021C222.345 95.0646 222.453 95.9498 222.164 95.9498C222.074 95.9498 221.875 96.004 221.712 96.0582C221.477 96.1485 221.423 96.0401 221.423 95.6066C221.423 95.2272 221.333 95.0466 221.152 95.0466C221.008 95.0466 220.881 94.9201 220.881 94.7575C220.881 94.5408 220.755 94.4866 220.357 94.5408C219.978 94.595 219.852 94.5588 219.924 94.3782C219.978 94.2517 219.978 94.1433 219.906 94.1433C219.834 94.1433 218.569 94.6853 218.37 94.8117C218.334 94.8298 218.425 94.9562 218.569 95.1008C218.714 95.2633 219.057 95.3356 219.436 95.2814L220.068 95.2091L219.49 95.4801C218.84 95.7691 218.768 96.0401 219.147 96.582C219.508 97.0878 219.418 97.9549 218.948 98.533C218.732 98.822 218.533 99.093 218.497 99.1652C218.388 99.4181 216.943 100.466 216.708 100.466C216.564 100.466 216.058 100.628 215.552 100.809C214.848 101.08 214.667 101.243 214.685 101.514C214.739 101.911 214.27 102.399 214.053 102.2C213.981 102.128 214.053 101.965 214.198 101.857C214.541 101.586 214.45 101.008 214.071 101.008C213.638 101.008 212.752 101.73 212.752 102.092C212.752 102.272 212.951 102.652 213.186 102.941C213.421 103.212 213.674 103.772 213.728 104.169C213.854 104.892 213.836 104.928 212.951 105.668C211.939 106.535 211.849 106.554 211.849 106.084C211.849 105.903 211.723 105.705 211.578 105.632C211.434 105.578 211.307 105.415 211.307 105.253C211.307 105.108 211.235 104.982 211.145 104.982C211.054 104.982 210.838 104.856 210.693 104.693C210.422 104.44 210.386 104.44 210.296 104.747C210.241 104.928 210.097 105.271 209.989 105.506C209.79 105.903 209.754 105.795 209.663 104.657C209.555 103.266 209.447 102.977 209.103 103.32C208.742 103.681 208.543 103.573 208.652 103.067C208.706 102.796 208.616 102.236 208.471 101.821L208.218 101.062L207.514 101.261C207.116 101.351 206.791 101.514 206.791 101.586C206.791 101.658 206.285 102.236 205.653 102.85C204.714 103.79 204.479 104.151 204.28 104.982C204.009 106.048 203.485 107.041 203.305 106.843C203.106 106.644 203.16 103.681 203.377 102.905C203.503 102.435 203.521 102.182 203.395 102.128C203.287 102.092 203.251 101.767 203.305 101.369C203.377 100.899 203.341 100.647 203.214 100.647C202.943 100.647 203.865 99.093 204.949 97.684C208.381 93.2221 213.547 90.2415 219.165 89.4647C220.61 89.266 224.566 89.3563 225.759 89.6273ZM228.938 90.6027C229.064 90.7473 229.281 90.8918 229.408 90.9279C229.588 91.0002 229.588 91.1085 229.408 91.524L229.173 92.0298L228.613 91.4879C228.27 91.1266 228.089 90.8195 228.161 90.6389C228.306 90.2776 228.595 90.2776 228.938 90.6027ZM219.31 99.9239C219.256 100.105 219.111 100.357 218.985 100.466C218.587 100.791 218.461 100.321 218.822 99.9059C219.219 99.4723 219.436 99.4723 219.31 99.9239ZM219.147 102.2C219.472 102.326 219.545 102.905 219.256 103.085C218.985 103.248 219.039 104.097 219.31 104.061C219.834 103.988 219.978 104.097 219.96 104.566C219.924 105 219.924 105.018 219.852 104.657C219.797 104.368 219.653 104.259 219.31 104.259C218.985 104.259 218.876 104.332 218.966 104.53C219.021 104.675 218.985 104.801 218.894 104.801C218.786 104.801 218.714 104.621 218.714 104.386C218.714 104.151 218.623 103.88 218.515 103.772C218.388 103.645 218.388 103.374 218.533 102.832C218.75 102.037 218.732 102.037 219.147 102.2ZM220.701 105.018C220.701 105.145 220.61 105.379 220.52 105.524C220.376 105.741 220.339 105.686 220.339 105.289C220.339 105.018 220.43 104.801 220.52 104.801C220.628 104.801 220.701 104.91 220.701 105.018ZM219.797 105.434C220.014 105.705 219.906 106.066 219.581 106.066C219.49 106.066 219.436 105.939 219.508 105.795C219.563 105.65 219.526 105.524 219.436 105.524C219.328 105.524 219.256 105.434 219.256 105.343C219.256 105.072 219.545 105.126 219.797 105.434ZM210.043 106.626C210.043 106.806 210.296 107.186 210.585 107.457C210.982 107.8 211.127 108.089 211.127 108.523C211.127 109.191 211.379 109.426 212.03 109.335C212.518 109.281 213.15 108.848 214.378 107.71C215.065 107.059 215.209 106.987 215.39 107.222C215.498 107.385 215.679 107.511 215.805 107.511C216.13 107.511 216.04 107.945 215.625 108.288C215.354 108.523 215.299 108.667 215.444 108.848C215.552 108.974 215.588 109.137 215.516 109.191C215.462 109.263 215.552 109.354 215.715 109.426C216.076 109.57 216.094 109.859 215.733 109.859C215.57 109.859 215.39 110.004 215.336 110.166C215.263 110.347 215.101 110.564 214.974 110.636C214.848 110.726 214.776 110.853 214.83 110.943C214.884 111.034 214.848 111.286 214.739 111.503C214.577 111.792 214.432 111.846 214.143 111.756C213.782 111.648 213.511 111.612 212.536 111.521C212.355 111.503 212.066 111.142 211.849 110.69C211.65 110.239 211.253 109.715 210.964 109.516C210.585 109.245 210.386 108.884 210.223 108.252C210.115 107.764 209.898 107.204 209.772 107.023C209.41 106.572 209.429 106.048 209.772 106.174C209.916 106.246 210.043 106.445 210.043 106.626ZM221.062 106.716C221.062 106.951 220.99 107.15 220.881 107.15C220.791 107.15 220.701 107.276 220.701 107.421C220.701 107.908 220.05 107.583 219.978 107.059C219.978 106.951 219.779 106.915 219.581 106.933C219.237 107.005 219.219 106.969 219.436 106.716C219.563 106.535 219.797 106.463 219.924 106.517C220.068 106.572 220.303 106.481 220.466 106.337C220.809 105.994 221.062 106.138 221.062 106.716ZM204.262 107.24C204.262 107.475 204.19 107.728 204.081 107.782C203.973 107.854 203.901 107.637 203.901 107.24C203.901 106.843 203.973 106.626 204.081 106.698C204.19 106.752 204.262 107.005 204.262 107.24ZM207.46 108.234C207.514 108.414 207.712 108.631 207.893 108.685C208.074 108.757 208.236 108.884 208.236 108.974C208.236 109.064 208.345 109.137 208.489 109.137C208.616 109.137 208.869 109.335 209.031 109.588C209.194 109.841 209.429 110.04 209.555 110.04C209.681 110.04 209.88 110.293 210.025 110.582C210.205 110.997 210.35 111.106 210.603 111.034C210.982 110.907 211 110.979 210.946 112.045C210.928 112.677 210.964 112.713 211.741 112.93C212.174 113.057 212.626 113.093 212.734 113.039C212.951 112.894 214.378 113.49 214.378 113.725C214.378 113.906 212.283 113.725 211.271 113.454C210.783 113.328 210.621 113.201 210.693 113.021C210.765 112.858 210.693 112.75 210.549 112.75C210.187 112.75 208.67 111.323 208.417 110.763C208.128 110.112 207.749 109.462 207.568 109.335C207.496 109.263 207.134 108.92 206.809 108.541L206.177 107.872H206.773C207.207 107.872 207.387 107.963 207.46 108.234ZM220.231 109.39C220.177 109.534 220.213 109.697 220.321 109.769C220.43 109.823 220.52 109.968 220.52 110.058C220.52 110.166 220.448 110.184 220.339 110.13C220.249 110.076 220.159 110.148 220.159 110.293C220.159 110.455 220.086 110.582 219.996 110.582C219.924 110.582 219.888 110.365 219.924 110.076C220.032 109.426 220.123 109.137 220.231 109.137C220.285 109.137 220.285 109.245 220.231 109.39ZM218.894 109.769C218.75 109.95 218.352 110.04 217.792 110.04C217.034 110.04 216.907 110.094 216.907 110.401C216.907 110.799 217.052 110.835 217.684 110.6C218.027 110.455 218.172 110.492 218.244 110.69C218.298 110.835 218.244 110.943 218.117 110.925C217.485 110.853 217.449 110.943 217.81 111.684C218.172 112.388 218.172 112.948 217.81 112.388C217.702 112.244 217.63 112.19 217.63 112.28C217.63 112.388 217.503 112.298 217.359 112.099C217.106 111.756 217.088 111.756 216.979 112.153C216.835 112.641 216.546 112.695 216.546 112.244C216.546 112.063 216.456 111.828 216.365 111.738C216.239 111.612 216.275 111.359 216.456 110.925C216.997 109.769 216.997 109.769 217.774 109.823C218.172 109.859 218.551 109.805 218.623 109.697C218.677 109.588 218.822 109.498 218.93 109.498C219.057 109.498 219.039 109.606 218.894 109.769ZM221.55 110.329C221.496 110.383 221.333 110.401 221.206 110.347C221.062 110.293 221.116 110.239 221.315 110.239C221.514 110.221 221.622 110.275 221.55 110.329ZM222.688 110.744C222.688 111.268 223.157 111.594 223.501 111.304C223.699 111.142 223.735 111.015 223.591 110.871C223.501 110.781 223.41 110.6 223.41 110.492C223.41 110.401 223.483 110.437 223.573 110.582C223.681 110.726 224.043 110.835 224.458 110.853C225.47 110.871 227.926 111.919 227.926 112.334C227.926 112.443 228.089 112.605 228.288 112.659C228.541 112.732 228.631 112.876 228.559 113.093C228.504 113.273 228.685 113.635 229.046 114.014C229.39 114.412 229.643 114.556 229.697 114.412C229.769 114.159 230.094 114.285 230.094 114.574C230.094 114.683 230.022 114.701 229.913 114.646C229.823 114.592 229.733 114.61 229.733 114.701C229.733 115.062 228.631 114.664 228.27 114.177C227.872 113.617 227.132 113.472 226.969 113.906C226.806 114.321 226.156 114.357 225.668 113.996C225.434 113.797 225.126 113.653 225 113.671C224.874 113.689 224.621 113.689 224.422 113.671C224.151 113.653 224.133 113.599 224.314 113.382C224.44 113.237 224.621 113.165 224.711 113.219C224.819 113.292 224.801 113.147 224.675 112.93C224.476 112.551 223.049 111.792 222.507 111.792C222.363 111.792 222.128 111.684 222.001 111.539C221.803 111.341 221.821 111.304 222.092 111.286C222.308 111.286 222.254 111.214 221.929 111.088C221.152 110.817 221.333 110.455 222.29 110.419C222.561 110.401 222.688 110.51 222.688 110.744ZM208.056 110.961C208.056 111.07 207.983 111.088 207.875 111.034C207.785 110.979 207.694 110.835 207.694 110.744C207.694 110.636 207.785 110.618 207.875 110.672C207.983 110.726 208.056 110.871 208.056 110.961ZM211.849 111.485C211.849 111.575 211.777 111.666 211.669 111.666C211.578 111.666 211.488 111.575 211.488 111.485C211.488 111.377 211.578 111.304 211.669 111.304C211.777 111.304 211.849 111.377 211.849 111.485ZM221.387 111.738C221.369 111.774 221.008 111.756 220.61 111.702C219.978 111.612 219.942 111.594 220.339 111.485C220.719 111.377 221.586 111.594 221.387 111.738ZM219.797 111.666C219.797 111.756 219.725 111.846 219.617 111.846C219.526 111.846 219.436 111.756 219.436 111.666C219.436 111.557 219.526 111.485 219.617 111.485C219.725 111.485 219.797 111.557 219.797 111.666ZM222.886 112.984C222.742 113.129 222.688 113.111 222.688 112.912C222.688 112.551 222.923 112.298 223.013 112.569C223.067 112.695 222.995 112.876 222.886 112.984ZM214.92 113.833C214.92 113.924 214.884 114.014 214.848 114.014C214.794 114.014 214.703 113.924 214.649 113.833C214.595 113.725 214.631 113.653 214.721 113.653C214.83 113.653 214.92 113.725 214.92 113.833ZM216.365 113.833C216.365 113.942 216.076 114.014 215.715 114.014C215.372 114.014 215.119 113.96 215.155 113.87C215.299 113.671 216.365 113.635 216.365 113.833ZM218.045 113.87C218.009 113.96 217.684 114.014 217.341 114.014C216.997 114.014 216.745 113.96 216.781 113.87C216.835 113.797 217.16 113.743 217.503 113.743C217.847 113.743 218.099 113.797 218.045 113.87ZM219.129 114.267C218.75 114.484 218.407 114.592 218.37 114.502C218.334 114.393 218.443 114.249 218.605 114.159C218.768 114.068 218.858 113.924 218.822 113.852C218.768 113.779 218.985 113.761 219.274 113.797L219.834 113.888L219.129 114.267ZM216.997 114.375C217.142 114.61 216.907 114.61 216.546 114.375C216.311 114.231 216.311 114.195 216.582 114.195C216.745 114.195 216.943 114.267 216.997 114.375ZM228.468 116.218C228.468 116.525 228.595 116.742 228.812 116.814C229.064 116.886 229.191 117.157 229.281 117.808C229.372 118.404 229.534 118.801 229.751 118.964C229.95 119.09 230.383 119.65 230.726 120.174C231.702 121.691 231.539 122.775 230.112 124.311C229.787 124.654 229.444 125.124 229.353 125.34C229.263 125.593 229.028 125.774 228.793 125.774C228.559 125.792 228.017 125.828 227.565 125.864C226.427 125.955 226.012 125.828 225.849 125.359C225.777 125.124 225.723 124.889 225.741 124.799C225.759 124.726 225.686 124.672 225.578 124.672C225.488 124.672 225.452 124.528 225.524 124.347C225.632 124.076 225.596 124.076 225.253 124.383C224.855 124.726 224.837 124.726 224.44 124.347C223.898 123.841 223.194 123.588 222.579 123.697C222.29 123.751 221.748 123.841 221.387 123.895C221.008 123.95 220.628 124.094 220.502 124.239C220.394 124.383 220.032 124.491 219.689 124.491C219.364 124.491 218.894 124.582 218.641 124.69C218.027 124.979 217.196 124.762 217.341 124.365C217.413 124.184 217.232 123.624 216.889 122.992C216.582 122.414 216.383 121.89 216.437 121.836C216.492 121.782 216.419 121.565 216.275 121.348C216.13 121.15 216.004 120.806 216.004 120.608C216.004 120.138 216.961 119.506 217.901 119.325C218.732 119.199 219.436 118.621 219.436 118.115C219.436 117.826 219.49 117.808 219.707 117.988C219.924 118.169 219.978 118.169 219.978 117.988C219.978 117.862 220.267 117.464 220.628 117.121C221.225 116.543 221.279 116.525 221.586 116.796C221.983 117.157 222.507 117.175 222.507 116.814C222.507 116.67 222.597 116.543 222.688 116.543C222.796 116.543 222.868 116.435 222.868 116.29C222.868 116.128 223.085 116.001 223.374 115.965C223.645 115.929 223.844 115.821 223.826 115.694C223.79 115.532 223.898 115.513 224.241 115.64C224.494 115.748 224.892 115.821 225.145 115.821C225.65 115.821 225.686 115.947 225.289 116.525C225 116.922 225 116.959 225.379 117.266C226.138 117.826 227.005 118.223 227.276 118.115C227.421 118.061 227.601 117.699 227.655 117.32C227.926 115.821 228.125 115.206 228.306 115.477C228.396 115.622 228.468 115.947 228.468 116.218ZM235.875 125.756C235.369 126.262 235.206 126.099 235.622 125.485C235.821 125.196 235.983 125.07 236.091 125.178C236.218 125.304 236.128 125.503 235.875 125.756ZM234.412 126.822C233.779 127.364 233.526 127.273 234.141 126.731C234.412 126.479 234.701 126.316 234.755 126.37C234.791 126.424 234.646 126.623 234.412 126.822ZM228.288 126.822C228.288 127.039 227.872 127.382 227.619 127.382C227.493 127.382 227.384 127.237 227.384 127.057C227.384 126.858 227.529 126.749 227.836 126.731C228.089 126.713 228.288 126.749 228.288 126.822ZM233.526 127.382C233.526 127.58 232.93 127.924 232.587 127.924C232.461 127.924 232.551 127.761 232.804 127.562C233.31 127.165 233.526 127.111 233.526 127.382Z" fill="#FEFEFE"/>
<path d="M218.371 168.568C219.274 169.255 220.322 170.862 222.851 175.505C224.242 178.088 225.398 180.238 225.398 180.292C225.398 180.346 224.694 180.798 223.826 181.303L222.237 182.207L226.843 182.261C229.372 182.297 231.703 182.261 231.992 182.207C232.479 182.116 232.823 181.665 235.207 177.763C236.67 175.36 237.844 173.373 237.826 173.337C237.79 173.319 237.158 173.644 236.417 174.078C235.677 174.511 234.972 174.873 234.864 174.891C234.755 174.891 234.539 174.62 234.376 174.294C233.184 171.982 232.082 170.158 231.666 169.833C230.601 169.002 229.499 168.785 225.127 168.586C222.833 168.478 220.286 168.351 219.437 168.297L217.901 168.207L218.371 168.568Z" fill="#FEFEFE"/>
<path d="M213.06 169.11C212.536 169.399 212.012 170.031 210.874 171.784C208.832 174.945 206.556 178.684 206.629 178.756C206.845 178.973 215.643 184.104 215.769 184.104C215.841 184.085 217.16 182.044 218.678 179.551L221.459 175.017L221.044 174.277C220.809 173.861 220.087 172.687 219.436 171.657C218.407 169.995 218.136 169.706 217.359 169.309C216.094 168.677 214.035 168.586 213.06 169.11Z" fill="#FEFEFE"/>
<path d="M234.972 184.121C232.443 185.422 230.348 186.505 230.312 186.542C230.294 186.56 231.432 188.691 232.841 191.293L235.388 196.025H238.585H241.765L242.577 195.52C243.499 194.923 244.312 194.02 244.673 193.189C245.161 192.015 244.998 191.365 243.517 188.493C240.934 183.543 239.94 181.755 239.759 181.755C239.669 181.755 237.501 182.82 234.972 184.121Z" fill="#FEFEFE"/>
<path d="M198.482 183.652C198.482 183.688 199.024 184.013 199.711 184.356C201.752 185.404 201.698 185.295 200.903 186.632C200.542 187.283 199.91 188.294 199.512 188.872C198.645 190.155 198.482 191.166 198.916 192.612C199.151 193.479 201.463 197.886 203.649 201.698L204.353 202.908L204.48 202.222C204.715 200.903 205.636 199.241 210.694 191.112L211.109 190.444L212.844 191.347C213.783 191.853 214.56 192.214 214.56 192.16C214.56 192.106 213.349 190.173 211.868 187.861L209.177 183.652L203.829 183.597C200.885 183.579 198.482 183.597 198.482 183.652Z" fill="#FEFEFE"/>
<path d="M226.03 197.073C224.639 199.422 223.501 201.427 223.501 201.535C223.501 201.626 224.603 203.739 225.94 206.196L228.378 210.676L228.433 208.924L228.487 207.171L231.377 207.298C235.694 207.478 235.731 207.46 239.777 201.535C241.276 199.349 242.649 197.326 242.848 197.037L243.173 196.513L242.739 196.748C242.505 196.875 241.529 197.019 240.59 197.073C238.982 197.164 229.914 196.82 229.065 196.64C228.685 196.568 228.667 196.459 228.613 194.689L228.559 192.81L226.03 197.073Z" fill="#FEFEFE"/>
<path d="M207.37 198.5C205.473 201.933 205.473 201.933 205.599 203.053C205.834 204.949 206.864 206.485 208.201 206.864C208.58 206.973 211.091 207.045 214.162 207.045H219.437V201.806V196.568H213.945H208.453L207.37 198.5Z" fill="#FEFEFE"/>
<path d="M20.025 79.3295C15.8521 84.9836 12.4199 89.6803 12.4199 89.7707C12.4199 89.9513 14.2264 91.3784 14.6238 91.5229C14.7683 91.5771 17.9115 87.4584 22.4095 81.3707C26.5643 75.7527 30.0146 71.056 30.0507 70.9476C30.123 70.767 28.0094 69.0328 27.7385 69.0328C27.6843 69.0328 24.2159 73.6573 20.025 79.3295Z" fill="#FEFEFE"/>
<path d="M28.1178 76.6558C26.1849 79.2571 24.5953 81.479 24.5772 81.5874C24.5411 81.7139 42.208 94.955 44.8996 96.7976C45.1705 96.9963 45.3151 96.8879 46.0918 95.8221C46.5615 95.1718 46.995 94.5215 47.0312 94.4131C47.0854 94.2866 43.2918 91.3602 38.0893 87.5306C33.1216 83.8635 29.0933 80.7745 29.1294 80.6661C29.1655 80.5577 30.2494 79.0223 31.5681 77.27C32.8687 75.4997 33.9707 73.9643 34.0068 73.8559C34.079 73.6933 32.2907 72.194 31.7487 71.9591C31.6945 71.9411 30.0507 74.0546 28.1178 76.6558Z" fill="#FEFEFE"/>
<path d="M313.606 77.2174C309.505 78.6264 306.146 79.8186 306.146 79.8728C306.164 80.0715 314.925 90.7656 315.069 90.7656C315.232 90.7476 322.945 77.4703 323.072 76.9825C323.144 76.6754 321.536 74.6342 321.247 74.6522C321.139 74.6522 317.689 75.8083 313.606 77.2174ZM318.285 79.367C318.086 79.6922 317.219 81.1735 316.352 82.6728C315.485 84.1541 314.744 85.4005 314.726 85.4366C314.69 85.4728 313.931 84.5876 313.028 83.4676C312.107 82.3657 311.402 81.4264 311.438 81.3902C311.565 81.2638 318.14 78.8251 318.393 78.807C318.574 78.789 318.538 78.9515 318.285 79.367Z" fill="#FEFEFE"/>
<path d="M299.661 81.8757C297.33 82.6705 295.397 83.3389 295.379 83.357C295.361 83.375 295.867 84.0615 296.517 84.8563L297.71 86.3195L300.564 85.3802L303.418 84.4228L306.778 88.5595L310.138 92.7143L308.602 95.2433C307.248 97.4291 307.067 97.8084 307.266 98.0975C307.988 99.0729 309.289 100.645 309.397 100.645C309.47 100.645 310.553 98.8562 311.818 96.6704C313.426 93.9065 314.076 92.6059 313.95 92.4614C310.427 88.0176 304.249 80.4847 304.086 80.4667C303.978 80.4486 301.991 81.0808 299.661 81.8757Z" fill="#FEFEFE"/>
<path d="M19.7711 87.9474L16.2305 92.7525L17.3866 93.6196C18.0188 94.1073 18.615 94.5047 18.6872 94.5047C18.7595 94.5047 19.9517 92.9693 21.3427 91.0906L23.8536 87.6764L25.9491 89.23C27.1052 90.079 31.1516 93.0777 34.9632 95.8957C38.7567 98.7137 41.936 101.026 42.0263 101.062C42.207 101.098 44.0676 98.6415 43.9953 98.4608C43.9412 98.3525 24.0523 83.5758 23.5104 83.2507C23.402 83.1965 21.8304 85.1474 19.7711 87.9474Z" fill="#FEFEFE"/>
<path d="M327.1 99.2004C319.711 103.066 313.624 106.3 313.587 106.408C313.533 106.553 314.942 109.316 315.069 109.316C315.105 109.316 342.111 95.2262 342.219 95.154C342.292 95.0998 340.738 92.1553 340.648 92.1553C340.594 92.1553 334.506 95.3165 327.1 99.2004Z" fill="#FEFEFE"/>
<path d="M336.801 99.9763C333.35 101.765 330.55 103.3 330.568 103.354C331.128 104.583 338.788 119.07 338.878 119.07C339.004 119.07 351.108 112.784 351.306 112.621C351.342 112.585 351.126 112.025 350.8 111.411C349.753 109.37 350.168 109.388 346.501 111.303C344.731 112.224 342.527 113.362 341.624 113.85L339.998 114.735L337.469 109.912C336.096 107.274 334.94 105.052 334.904 104.98C334.868 104.908 336.981 103.734 339.601 102.361C342.22 101.006 344.424 99.8318 344.496 99.7595C344.568 99.6873 344.279 98.9647 343.846 98.1518L343.069 96.6886L336.801 99.9763Z" fill="#FEFEFE"/>
<path d="M12.835 99.6339C6.83764 100.79 2.57446 104.854 1.02093 110.906C0.551254 112.767 0.551254 115.476 1.03899 117.373C2.35769 122.576 6.51248 126.911 11.9679 128.772C19.6814 131.391 27.3587 128.338 30.5922 121.329C31.6219 119.107 31.9651 117.5 31.9651 115.007C31.9651 111.845 31.2064 109.461 29.3458 106.715C27.7742 104.385 24.8297 102.018 22.0117 100.826C19.2298 99.6339 15.4182 99.1462 12.835 99.6339ZM18.3266 103.175C23.4388 104.403 27.5032 108.196 28.5871 112.767C29.689 117.5 27.2142 122.955 22.933 125.105C21.0001 126.08 19.6091 126.351 17.0259 126.261C14.515 126.17 12.8711 125.701 10.6131 124.436C9.00536 123.533 6.29571 120.932 5.41056 119.414C3.71251 116.506 3.40542 113.291 4.52541 110.165C5.17572 108.395 5.8441 107.365 7.27118 105.938C8.71633 104.529 10.4324 103.572 12.3473 103.102C13.9369 102.723 16.5563 102.741 18.3266 103.175Z" fill="#FEFEFE"/>
<path d="M13.5027 104.746C10.4318 105.216 7.92083 106.968 6.6202 109.515C4.037 114.645 6.31311 120.263 12.1479 123.135C14.2072 124.165 15.5259 124.49 17.5311 124.49C22.8781 124.49 26.78 120.986 27.1593 115.837C27.4845 111.538 24.5942 107.51 19.8252 105.577C17.9285 104.818 15.273 104.457 13.5027 104.746ZM17.0072 108.16C19.5904 108.828 22.3362 110.87 23.3478 112.875C23.8355 113.796 23.8897 114.103 23.8897 115.548C23.8897 116.957 23.8174 117.301 23.402 118.077C22.8239 119.161 21.8304 120.155 20.7284 120.715C19.4278 121.383 17.1878 121.419 15.2369 120.805C12.5092 119.956 10.0886 117.987 9.11308 115.819C8.60728 114.681 8.60728 112.604 9.13114 111.448C9.56469 110.454 10.8111 109.045 11.5879 108.648C13.1234 107.835 15.0924 107.672 17.0072 108.16Z" fill="#FEFEFE"/>
<path d="M322.493 107.439C319.025 109.264 316.098 110.781 316.008 110.817C315.809 110.89 317.164 113.653 317.453 113.762C317.616 113.834 320.922 112.172 325.962 109.481L327.605 108.595L330.171 113.491C331.58 116.182 332.663 118.459 332.573 118.531C332.501 118.603 330.225 119.831 327.515 121.241L322.602 123.788L323.36 125.323C323.776 126.154 324.155 126.822 324.227 126.804C325.293 126.353 337.035 120.066 337.035 119.94C337.035 119.813 328.942 104.224 328.834 104.152C328.834 104.134 325.98 105.633 322.493 107.439Z" fill="#FEFEFE"/>
<path d="M338.751 121.258C331.399 125.106 325.312 128.303 325.203 128.339C324.986 128.448 326.395 131.266 326.666 131.266C326.775 131.266 332.917 128.104 340.323 124.221L353.799 117.175L353.095 115.784C352.715 115.026 352.336 114.357 352.264 114.321C352.173 114.285 346.104 117.392 338.751 121.258Z" fill="#FEFEFE"/>
</g>
<defs>
<filter id="filter0_d_1022_371" x="0.670898" y="0.929688" width="362.928" height="266.134" filterUnits="userSpaceOnUse" color-interpolation-filters="sRGB">
<feFlood flood-opacity="0" result="BackgroundImageFix"/>
<feColorMatrix in="SourceAlpha" type="matrix" values="0 0 0 0 0 0 0 0 0 0 0 0 0 0 0 0 0 0 127 0" result="hardAlpha"/>
<feOffset dx="7" dy="7"/>
<feGaussianBlur stdDeviation="1.4"/>
<feComposite in2="hardAlpha" operator="out"/>
<feColorMatrix type="matrix" values="0 0 0 0 0 0 0 0 0 0 0 0 0 0 0 0 0 0 0.25 0"/>
<feBlend mode="normal" in2="BackgroundImageFix" result="effect1_dropShadow_1022_371"/>
<feBlend mode="normal" in="SourceGraphic" in2="effect1_dropShadow_1022_371" result="shape"/>
</filter>
</defs>
</svg>
